<svg xmlns="http://www.w3.org/2000/svg" xmlns:xlink="http://www.w3.org/1999/xlink" width="50" zoomAndPan="magnify" viewBox="0 0 37.5 37.499999" height="50" preserveAspectRatio="xMidYMid meet" version="1.0"><defs><clipPath id="8b403dd7df"><path d="M 1.851562 1.851562 L 35.15625 1.851562 L 35.15625 35.15625 L 1.851562 35.15625 Z M 1.851562 1.851562 " clip-rule="nonzero"/></clipPath></defs><path fill="#fdf1e9" d="M 34.175781 18.503906 C 34.175781 19.015625 34.152344 19.527344 34.101562 20.039062 C 34.050781 20.550781 33.976562 21.058594 33.875 21.5625 C 33.773438 22.066406 33.652344 22.5625 33.5 23.054688 C 33.351562 23.542969 33.179688 24.027344 32.984375 24.5 C 32.789062 24.976562 32.566406 25.4375 32.324219 25.890625 C 32.085938 26.34375 31.820312 26.785156 31.535156 27.210938 C 31.25 27.636719 30.945312 28.050781 30.617188 28.445312 C 30.292969 28.84375 29.949219 29.222656 29.585938 29.585938 C 29.222656 29.949219 28.84375 30.292969 28.445312 30.617188 C 28.050781 30.945312 27.636719 31.25 27.210938 31.535156 C 26.785156 31.820312 26.34375 32.085938 25.890625 32.324219 C 25.4375 32.566406 24.976562 32.789062 24.5 32.984375 C 24.027344 33.179688 23.542969 33.351562 23.054688 33.5 C 22.5625 33.652344 22.066406 33.773438 21.5625 33.875 C 21.058594 33.976562 20.550781 34.050781 20.039062 34.101562 C 19.527344 34.152344 19.015625 34.175781 18.503906 34.175781 C 17.988281 34.175781 17.476562 34.152344 16.96875 34.101562 C 16.457031 34.050781 15.949219 33.976562 15.445312 33.875 C 14.941406 33.773438 14.445312 33.652344 13.953125 33.5 C 13.460938 33.351562 12.980469 33.179688 12.503906 32.984375 C 12.03125 32.789062 11.566406 32.566406 11.113281 32.324219 C 10.664062 32.085938 10.222656 31.820312 9.796875 31.535156 C 9.367188 31.25 8.957031 30.945312 8.558594 30.617188 C 8.164062 30.292969 7.785156 29.949219 7.421875 29.585938 C 7.058594 29.222656 6.714844 28.84375 6.386719 28.445312 C 6.0625 28.050781 5.757812 27.636719 5.472656 27.210938 C 5.1875 26.785156 4.921875 26.34375 4.679688 25.890625 C 4.4375 25.4375 4.21875 24.976562 4.023438 24.5 C 3.828125 24.027344 3.652344 23.542969 3.503906 23.054688 C 3.355469 22.5625 3.230469 22.066406 3.132812 21.5625 C 3.03125 21.058594 2.957031 20.550781 2.90625 20.039062 C 2.855469 19.527344 2.828125 19.015625 2.828125 18.503906 C 2.828125 17.988281 2.855469 17.476562 2.90625 16.96875 C 2.957031 16.457031 3.03125 15.949219 3.132812 15.445312 C 3.230469 14.941406 3.355469 14.445312 3.503906 13.953125 C 3.652344 13.460938 3.828125 12.980469 4.023438 12.503906 C 4.21875 12.03125 4.4375 11.566406 4.679688 11.113281 C 4.921875 10.664062 5.1875 10.222656 5.472656 9.796875 C 5.757812 9.367188 6.0625 8.957031 6.386719 8.558594 C 6.714844 8.164062 7.058594 7.785156 7.421875 7.421875 C 7.785156 7.058594 8.164062 6.714844 8.558594 6.386719 C 8.957031 6.0625 9.367188 5.757812 9.796875 5.472656 C 10.222656 5.1875 10.664062 4.921875 11.113281 4.679688 C 11.566406 4.4375 12.03125 4.21875 12.503906 4.023438 C 12.980469 3.828125 13.460938 3.652344 13.953125 3.503906 C 14.445312 3.355469 14.941406 3.230469 15.445312 3.132812 C 15.949219 3.03125 16.457031 2.957031 16.96875 2.90625 C 17.476562 2.855469 17.988281 2.828125 18.503906 2.828125 C 19.015625 2.828125 19.527344 2.855469 20.039062 2.90625 C 20.550781 2.957031 21.058594 3.03125 21.5625 3.132812 C 22.066406 3.230469 22.5625 3.355469 23.054688 3.503906 C 23.542969 3.652344 24.027344 3.828125 24.5 4.023438 C 24.976562 4.21875 25.4375 4.4375 25.890625 4.679688 C 26.34375 4.921875 26.785156 5.1875 27.210938 5.472656 C 27.636719 5.757812 28.050781 6.0625 28.445312 6.386719 C 28.84375 6.714844 29.222656 7.058594 29.585938 7.421875 C 29.949219 7.785156 30.292969 8.164062 30.617188 8.558594 C 30.945312 8.957031 31.25 9.367188 31.535156 9.796875 C 31.820312 10.222656 32.085938 10.664062 32.324219 11.113281 C 32.566406 11.566406 32.789062 12.03125 32.984375 12.503906 C 33.179688 12.980469 33.351562 13.460938 33.5 13.953125 C 33.652344 14.445312 33.773438 14.941406 33.875 15.445312 C 33.976562 15.949219 34.050781 16.457031 34.101562 16.96875 C 34.152344 17.476562 34.175781 17.988281 34.175781 18.503906 Z M 34.175781 18.503906 " fill-opacity="1" fill-rule="nonzero"/><g clip-path="url(#8b403dd7df)"><path fill="#000000" d="M 18.503906 35.15625 C 9.300781 35.15625 1.851562 27.707031 1.851562 18.503906 C 1.851562 9.300781 9.296875 1.851562 18.503906 1.851562 C 27.707031 1.851562 35.15625 9.296875 35.15625 18.503906 C 35.15625 27.707031 27.707031 35.15625 18.503906 35.15625 Z M 18.503906 3.808594 C 10.402344 3.808594 3.808594 10.402344 3.808594 18.503906 C 3.808594 26.605469 10.402344 33.195312 18.503906 33.195312 C 26.605469 33.195312 33.195312 26.605469 33.195312 18.503906 C 33.195312 10.402344 26.605469 3.808594 18.503906 3.808594 Z M 18.503906 3.808594 " fill-opacity="1" fill-rule="nonzero"/></g><path fill="#00ffd9" d="M 22.269531 24.230469 L 25.078125 27.035156 C 20.65625 30.449219 14.359375 29.914062 10.570312 25.789062 L 13.34375 23.015625 C 15.613281 25.609375 19.425781 26.109375 22.269531 24.230469 Z M 22.269531 24.230469 " fill-opacity="1" fill-rule="nonzero"/><path fill="#ff2e17" d="M 29.277344 16.542969 L 29.277344 18.503906 C 29.277344 21.972656 27.632812 25.0625 25.078125 27.035156 L 22.269531 24.230469 C 23.601562 23.351562 24.609375 22.023438 25.074219 20.460938 L 19.761719 20.460938 L 19.761719 16.542969 Z M 29.277344 16.542969 " fill-opacity="1" fill-rule="nonzero"/><path fill="#0056d1" d="M 13.34375 23.015625 L 10.570312 25.789062 C 6.835938 21.722656 6.777344 15.519531 10.414062 11.394531 L 13.191406 14.171875 C 11.078125 16.757812 11.136719 20.492188 13.34375 23.015625 Z M 13.34375 23.015625 " fill-opacity="1" fill-rule="nonzero"/><path fill="#ffc933" d="M 24.664062 9.660156 L 22.421875 12.875 C 19.480469 10.824219 15.457031 11.394531 13.191406 14.171875 L 10.414062 11.394531 C 14.058594 7.253906 20.1875 6.539062 24.664062 9.660156 Z M 24.664062 9.660156 " fill-opacity="1" fill-rule="nonzero"/><path fill="#000000" d="M 29.277344 15.566406 L 19.761719 15.566406 C 19.222656 15.566406 18.765625 16.003906 18.765625 16.542969 L 18.765625 20.460938 C 18.765625 21.003906 19.222656 21.441406 19.761719 21.441406 L 23.589844 21.441406 C 22.566406 23.210938 20.65625 24.378906 18.503906 24.378906 C 15.273438 24.378906 12.625 21.753906 12.625 18.503906 C 12.625 15.292969 15.230469 12.625 18.503906 12.625 C 19.710938 12.625 20.875 12.988281 21.859375 13.675781 C 22.304688 13.988281 22.914062 13.878906 23.222656 13.433594 L 25.464844 10.21875 C 25.773438 9.777344 25.667969 9.167969 25.222656 8.855469 C 23.246094 7.476562 20.921875 6.75 18.503906 6.75 C 12.054688 6.75 6.75 11.988281 6.75 18.503906 C 6.75 25.066406 12.105469 30.257812 18.507812 30.257812 C 25.015625 30.257812 30.257812 24.980469 30.257812 18.503906 L 30.257812 16.542969 C 30.257812 16.003906 29.820312 15.566406 29.277344 15.566406 Z M 23.269531 9.941406 L 22.140625 11.558594 C 19.300781 10.066406 15.675781 10.429688 13.171875 12.765625 L 11.785156 11.382812 C 14.917969 8.429688 19.574219 7.878906 23.269531 9.941406 Z M 10.5 12.863281 L 11.910156 14.273438 C 10.207031 16.925781 10.253906 20.332031 12.042969 22.929688 L 10.636719 24.335938 C 8.117188 20.945312 8.058594 16.316406 10.5 12.863281 Z M 11.957031 25.785156 L 13.34375 24.398438 C 15.769531 26.519531 19.25 26.949219 22.113281 25.457031 L 23.550781 26.894531 C 19.875 29.125 15.160156 28.660156 11.957031 25.785156 Z M 28.300781 18.503906 C 28.300781 21.273438 27.15625 23.851562 25.132812 25.707031 L 23.746094 24.320312 C 24.8125 23.359375 25.601562 22.125 26.011719 20.742188 C 26.199219 20.117188 25.730469 19.484375 25.074219 19.484375 L 20.722656 19.484375 L 20.722656 17.523438 L 28.300781 17.523438 Z M 28.300781 18.503906 " fill-opacity="1" fill-rule="nonzero"/></svg>