<svg xmlns="http://www.w3.org/2000/svg" xmlns:xlink="http://www.w3.org/1999/xlink" width="500" zoomAndPan="magnify" viewBox="0 0 375 374.999991" height="500" preserveAspectRatio="xMidYMid meet" version="1.0"><defs><g/><clipPath id="6473d7f418"><path d="M 15 14.421875 L 359.976562 14.421875 L 359.976562 360.921875 L 15 360.921875 Z M 15 14.421875 " clip-rule="nonzero"/></clipPath><clipPath id="83de654884"><path d="M 15 14.421875 L 355 14.421875 L 355 356 L 15 356 Z M 15 14.421875 " clip-rule="nonzero"/></clipPath><clipPath id="d313295f31"><path d="M 15 14.421875 L 355 14.421875 L 355 118 L 15 118 Z M 15 14.421875 " clip-rule="nonzero"/></clipPath></defs><g clip-path="url(#6473d7f418)"><path fill="#000000" d="M 308.761719 360.921875 L 66.1875 360.921875 C 38.101562 360.921875 15.386719 338.179688 15.386719 310.199219 L 15.386719 65.28125 C 15.386719 37.164062 38.101562 14.421875 66.1875 14.421875 L 308.898438 14.421875 C 336.847656 14.421875 359.5625 37.164062 359.5625 65.28125 L 359.5625 310.199219 C 359.5625 338.179688 336.847656 360.921875 308.761719 360.921875 Z M 308.761719 360.921875 " fill-opacity="0.15" fill-rule="nonzero"/></g><g clip-path="url(#83de654884)"><path fill="#43ada5" d="M 303.53125 355.410156 L 65.914062 355.410156 C 37.964844 355.410156 15.386719 332.804688 15.386719 304.824219 L 15.386719 65.003906 C 15.386719 37.027344 37.964844 14.421875 65.914062 14.421875 L 303.53125 14.421875 C 331.476562 14.421875 354.054688 37.027344 354.054688 65.003906 L 354.054688 304.824219 C 354.191406 332.804688 331.476562 355.410156 303.53125 355.410156 Z M 303.53125 355.410156 " fill-opacity="1" fill-rule="nonzero"/></g><g clip-path="url(#d313295f31)"><path fill="#f04e3e" d="M 354.191406 60.042969 L 354.191406 117.792969 L 15.386719 117.792969 L 15.386719 60.042969 C 15.386719 34.820312 35.761719 14.421875 60.957031 14.421875 L 308.484375 14.421875 C 333.679688 14.421875 354.191406 34.820312 354.191406 60.042969 Z M 354.191406 60.042969 " fill-opacity="1" fill-rule="nonzero"/></g><path fill="#000000" d="M 321.425781 211.101562 C 321.425781 213.351562 321.371094 215.597656 321.261719 217.84375 C 321.152344 220.089844 320.988281 222.332031 320.765625 224.570312 C 320.546875 226.808594 320.269531 229.039062 319.941406 231.265625 C 319.613281 233.488281 319.226562 235.707031 318.789062 237.910156 C 318.351562 240.117188 317.859375 242.308594 317.3125 244.492188 C 316.769531 246.671875 316.167969 248.839844 315.515625 250.992188 C 314.863281 253.144531 314.160156 255.277344 313.402344 257.394531 C 312.648438 259.511719 311.839844 261.609375 310.980469 263.6875 C 310.121094 265.765625 309.210938 267.820312 308.25 269.855469 C 307.289062 271.886719 306.277344 273.894531 305.21875 275.878906 C 304.160156 277.863281 303.054688 279.820312 301.898438 281.746094 C 300.746094 283.675781 299.542969 285.574219 298.296875 287.445312 C 297.046875 289.316406 295.753906 291.152344 294.417969 292.960938 C 293.078125 294.765625 291.695312 296.539062 290.269531 298.277344 C 288.847656 300.015625 287.378906 301.71875 285.871094 303.382812 C 284.363281 305.050781 282.8125 306.679688 281.226562 308.269531 C 279.636719 309.859375 278.011719 311.410156 276.347656 312.921875 C 274.683594 314.429688 272.980469 315.898438 271.246094 317.324219 C 269.507812 318.753906 267.738281 320.136719 265.933594 321.476562 C 264.128906 322.816406 262.292969 324.109375 260.425781 325.359375 C 258.558594 326.609375 256.660156 327.8125 254.734375 328.96875 C 252.808594 330.125 250.855469 331.230469 248.871094 332.292969 C 246.890625 333.351562 244.886719 334.363281 242.855469 335.324219 C 240.824219 336.285156 238.773438 337.195312 236.695312 338.058594 C 234.621094 338.917969 232.527344 339.726562 230.410156 340.484375 C 228.296875 341.242188 226.164062 341.949219 224.015625 342.601562 C 221.863281 343.253906 219.699219 343.851562 217.519531 344.398438 C 215.34375 344.945312 213.152344 345.4375 210.949219 345.875 C 208.746094 346.316406 206.53125 346.699219 204.308594 347.03125 C 202.089844 347.359375 199.859375 347.636719 197.625 347.855469 C 195.386719 348.074219 193.148438 348.242188 190.90625 348.351562 C 188.660156 348.460938 186.417969 348.515625 184.171875 348.515625 C 181.925781 348.515625 179.679688 348.460938 177.4375 348.351562 C 175.191406 348.242188 172.953125 348.074219 170.71875 347.855469 C 168.480469 347.636719 166.253906 347.359375 164.03125 347.03125 C 161.808594 346.699219 159.597656 346.316406 157.394531 345.875 C 155.191406 345.4375 153 344.945312 150.820312 344.398438 C 148.640625 343.851562 146.476562 343.253906 144.328125 342.601562 C 142.175781 341.949219 140.046875 341.242188 137.929688 340.484375 C 135.816406 339.726562 133.71875 338.917969 131.644531 338.058594 C 129.570312 337.195312 127.515625 336.285156 125.484375 335.324219 C 123.457031 334.363281 121.449219 333.351562 119.46875 332.292969 C 117.488281 331.230469 115.535156 330.125 113.605469 328.96875 C 111.679688 327.8125 109.78125 326.609375 107.914062 325.359375 C 106.046875 324.109375 104.210938 322.816406 102.40625 321.476562 C 100.601562 320.136719 98.832031 318.753906 97.097656 317.324219 C 95.359375 315.898438 93.660156 314.429688 91.996094 312.921875 C 90.332031 311.410156 88.703125 309.859375 87.117188 308.269531 C 85.527344 306.679688 83.980469 305.050781 82.46875 303.382812 C 80.960938 301.71875 79.496094 300.015625 78.070312 298.277344 C 76.644531 296.539062 75.261719 294.765625 73.925781 292.960938 C 72.585938 291.152344 71.292969 289.316406 70.046875 287.445312 C 68.796875 285.574219 67.597656 283.675781 66.441406 281.746094 C 65.285156 279.820312 64.179688 277.863281 63.121094 275.878906 C 62.0625 273.894531 61.050781 271.886719 60.09375 269.855469 C 59.132812 267.820312 58.222656 265.765625 57.363281 263.6875 C 56.503906 261.609375 55.695312 259.511719 54.9375 257.394531 C 54.179688 255.277344 53.476562 253.144531 52.824219 250.992188 C 52.171875 248.839844 51.574219 246.671875 51.027344 244.492188 C 50.480469 242.308594 49.988281 240.117188 49.550781 237.910156 C 49.113281 235.707031 48.730469 233.488281 48.398438 231.265625 C 48.070312 229.039062 47.796875 226.808594 47.574219 224.570312 C 47.355469 222.332031 47.191406 220.089844 47.078125 217.84375 C 46.96875 215.597656 46.914062 213.351562 46.914062 211.101562 C 46.914062 208.855469 46.96875 206.605469 47.078125 204.359375 C 47.191406 202.113281 47.355469 199.871094 47.574219 197.632812 C 47.796875 195.394531 48.070312 193.164062 48.398438 190.941406 C 48.730469 188.714844 49.113281 186.5 49.550781 184.292969 C 49.988281 182.089844 50.480469 179.894531 51.027344 177.714844 C 51.574219 175.53125 52.171875 173.363281 52.824219 171.214844 C 53.476562 169.0625 54.179688 166.925781 54.9375 164.808594 C 55.695312 162.691406 56.503906 160.59375 57.363281 158.515625 C 58.222656 156.4375 59.132812 154.382812 60.09375 152.351562 C 61.050781 150.316406 62.0625 148.308594 63.121094 146.324219 C 64.179688 144.34375 65.285156 142.386719 66.441406 140.457031 C 67.597656 138.527344 68.796875 136.628906 70.046875 134.757812 C 71.292969 132.890625 72.585938 131.050781 73.925781 129.246094 C 75.261719 127.4375 76.644531 125.664062 78.070312 123.925781 C 79.496094 122.1875 80.960938 120.488281 82.46875 118.820312 C 83.980469 117.152344 85.527344 115.527344 87.117188 113.9375 C 88.703125 112.34375 90.332031 110.796875 91.996094 109.285156 C 93.660156 107.773438 95.359375 106.304688 97.097656 104.878906 C 98.832031 103.453125 100.601562 102.070312 102.40625 100.730469 C 104.210938 99.390625 106.046875 98.097656 107.914062 96.847656 C 109.78125 95.597656 111.679688 94.394531 113.605469 93.238281 C 115.535156 92.082031 117.488281 90.972656 119.46875 89.914062 C 121.449219 88.851562 123.457031 87.84375 125.484375 86.882812 C 127.515625 85.917969 129.570312 85.007812 131.644531 84.148438 C 133.71875 83.289062 135.816406 82.476562 137.929688 81.71875 C 140.046875 80.964844 142.175781 80.257812 144.328125 79.605469 C 146.476562 78.953125 148.640625 78.351562 150.820312 77.804688 C 153 77.257812 155.191406 76.765625 157.394531 76.328125 C 159.597656 75.890625 161.808594 75.503906 164.03125 75.175781 C 166.253906 74.84375 168.480469 74.570312 170.71875 74.347656 C 172.953125 74.128906 175.191406 73.964844 177.4375 73.851562 C 179.679688 73.742188 181.925781 73.6875 184.171875 73.6875 C 186.417969 73.6875 188.660156 73.742188 190.90625 73.851562 C 193.148438 73.964844 195.386719 74.128906 197.625 74.347656 C 199.859375 74.570312 202.089844 74.84375 204.308594 75.175781 C 206.53125 75.503906 208.746094 75.890625 210.949219 76.328125 C 213.152344 76.765625 215.34375 77.257812 217.519531 77.804688 C 219.699219 78.351562 221.863281 78.953125 224.015625 79.605469 C 226.164062 80.257812 228.296875 80.964844 230.410156 81.71875 C 232.527344 82.476562 234.621094 83.289062 236.695312 84.148438 C 238.773438 85.007812 240.824219 85.917969 242.855469 86.882812 C 244.886719 87.84375 246.890625 88.851562 248.871094 89.914062 C 250.855469 90.972656 252.808594 92.082031 254.734375 93.238281 C 256.660156 94.394531 258.558594 95.597656 260.425781 96.847656 C 262.292969 98.097656 264.128906 99.390625 265.933594 100.730469 C 267.738281 102.070312 269.507812 103.453125 271.246094 104.878906 C 272.980469 106.304688 274.683594 107.773438 276.347656 109.285156 C 278.011719 110.796875 279.636719 112.34375 281.226562 113.9375 C 282.8125 115.527344 284.363281 117.152344 285.871094 118.820312 C 287.378906 120.488281 288.847656 122.1875 290.269531 123.925781 C 291.695312 125.664062 293.078125 127.4375 294.417969 129.246094 C 295.753906 131.050781 297.046875 132.890625 298.296875 134.757812 C 299.542969 136.628906 300.746094 138.527344 301.898438 140.457031 C 303.054688 142.386719 304.160156 144.34375 305.21875 146.324219 C 306.277344 148.308594 307.289062 150.316406 308.25 152.351562 C 309.210938 154.382812 310.121094 156.4375 310.980469 158.515625 C 311.839844 160.59375 312.648438 162.691406 313.402344 164.808594 C 314.160156 166.925781 314.863281 169.0625 315.515625 171.214844 C 316.167969 173.363281 316.769531 175.53125 317.3125 177.714844 C 317.859375 179.894531 318.351562 182.089844 318.789062 184.292969 C 319.226562 186.5 319.613281 188.714844 319.941406 190.941406 C 320.269531 193.164062 320.546875 195.394531 320.765625 197.632812 C 320.988281 199.871094 321.152344 202.113281 321.261719 204.359375 C 321.371094 206.605469 321.425781 208.855469 321.425781 211.101562 Z M 321.425781 211.101562 " fill-opacity="0.15" fill-rule="nonzero"/><path fill="#43434f" d="M 318.8125 207.519531 C 318.8125 209.726562 318.757812 211.929688 318.648438 214.132812 C 318.542969 216.335938 318.378906 218.535156 318.164062 220.730469 C 317.945312 222.925781 317.675781 225.117188 317.355469 227.296875 C 317.03125 229.480469 316.65625 231.652344 316.222656 233.816406 C 315.792969 235.980469 315.3125 238.132812 314.777344 240.273438 C 314.242188 242.410156 313.652344 244.539062 313.015625 246.648438 C 312.375 248.757812 311.683594 250.851562 310.941406 252.929688 C 310.199219 255.007812 309.40625 257.066406 308.5625 259.101562 C 307.71875 261.140625 306.828125 263.15625 305.882812 265.152344 C 304.941406 267.144531 303.953125 269.117188 302.914062 271.0625 C 301.875 273.007812 300.789062 274.925781 299.65625 276.816406 C 298.523438 278.710938 297.34375 280.574219 296.121094 282.40625 C 294.894531 284.242188 293.628906 286.046875 292.316406 287.816406 C 291.003906 289.589844 289.648438 291.328125 288.25 293.03125 C 286.851562 294.738281 285.414062 296.40625 283.933594 298.042969 C 282.453125 299.675781 280.933594 301.273438 279.375 302.835938 C 277.816406 304.394531 276.222656 305.914062 274.589844 307.394531 C 272.957031 308.878906 271.289062 310.316406 269.585938 311.71875 C 267.882812 313.117188 266.144531 314.472656 264.375 315.789062 C 262.605469 317.101562 260.804688 318.371094 258.972656 319.597656 C 257.140625 320.824219 255.28125 322.003906 253.390625 323.136719 C 251.5 324.269531 249.582031 325.359375 247.640625 326.398438 C 245.695312 327.4375 243.730469 328.429688 241.738281 329.375 C 239.746094 330.316406 237.730469 331.210938 235.695312 332.054688 C 233.660156 332.898438 231.605469 333.691406 229.53125 334.433594 C 227.453125 335.179688 225.363281 335.871094 223.253906 336.511719 C 221.144531 337.152344 219.023438 337.738281 216.886719 338.273438 C 214.75 338.8125 212.597656 339.292969 210.4375 339.726562 C 208.277344 340.15625 206.105469 340.53125 203.925781 340.855469 C 201.746094 341.179688 199.5625 341.449219 197.367188 341.664062 C 195.175781 341.882812 192.976562 342.042969 190.777344 342.152344 C 188.578125 342.261719 186.375 342.316406 184.171875 342.316406 C 181.96875 342.316406 179.765625 342.261719 177.5625 342.152344 C 175.363281 342.042969 173.167969 341.882812 170.972656 341.664062 C 168.78125 341.449219 166.59375 341.179688 164.414062 340.855469 C 162.234375 340.53125 160.066406 340.15625 157.902344 339.726562 C 155.742188 339.292969 153.59375 338.8125 151.457031 338.273438 C 149.316406 337.738281 147.195312 337.152344 145.085938 336.511719 C 142.976562 335.871094 140.886719 335.179688 138.8125 334.433594 C 136.738281 333.691406 134.679688 332.898438 132.644531 332.054688 C 130.609375 331.210938 128.597656 330.316406 126.605469 329.375 C 124.613281 328.429688 122.644531 327.4375 120.703125 326.398438 C 118.757812 325.359375 116.839844 324.269531 114.953125 323.136719 C 113.0625 322.003906 111.199219 320.824219 109.367188 319.597656 C 107.535156 318.371094 105.734375 317.101562 103.964844 315.789062 C 102.195312 314.472656 100.457031 313.117188 98.753906 311.71875 C 97.050781 310.316406 95.382812 308.878906 93.75 307.394531 C 92.117188 305.914062 90.523438 304.394531 88.964844 302.835938 C 87.40625 301.273438 85.886719 299.675781 84.410156 298.042969 C 82.929688 296.40625 81.488281 294.738281 80.09375 293.03125 C 78.695312 291.328125 77.339844 289.589844 76.027344 287.816406 C 74.714844 286.046875 73.445312 284.242188 72.222656 282.40625 C 70.996094 280.574219 69.816406 278.710938 68.683594 276.816406 C 67.550781 274.925781 66.464844 273.007812 65.429688 271.0625 C 64.390625 269.117188 63.398438 267.144531 62.457031 265.152344 C 61.515625 263.15625 60.621094 261.140625 59.777344 259.101562 C 58.933594 257.066406 58.144531 255.007812 57.398438 252.929688 C 56.65625 250.851562 55.96875 248.757812 55.328125 246.648438 C 54.6875 244.539062 54.101562 242.410156 53.566406 240.273438 C 53.03125 238.132812 52.546875 235.980469 52.117188 233.816406 C 51.6875 231.652344 51.308594 229.480469 50.988281 227.296875 C 50.664062 225.117188 50.394531 222.925781 50.179688 220.730469 C 49.960938 218.535156 49.800781 216.335938 49.691406 214.132812 C 49.582031 211.929688 49.53125 209.726562 49.53125 207.519531 C 49.53125 205.3125 49.582031 203.109375 49.691406 200.90625 C 49.800781 198.703125 49.960938 196.503906 50.179688 194.308594 C 50.394531 192.109375 50.664062 189.921875 50.988281 187.742188 C 51.308594 185.558594 51.6875 183.386719 52.117188 181.222656 C 52.546875 179.058594 53.03125 176.90625 53.566406 174.765625 C 54.101562 172.625 54.6875 170.5 55.328125 168.390625 C 55.96875 166.277344 56.65625 164.183594 57.398438 162.109375 C 58.144531 160.03125 58.933594 157.972656 59.777344 155.933594 C 60.621094 153.898438 61.515625 151.878906 62.457031 149.886719 C 63.398438 147.890625 64.390625 145.921875 65.429688 143.976562 C 66.464844 142.03125 67.550781 140.113281 68.683594 138.21875 C 69.816406 136.328125 70.996094 134.464844 72.222656 132.628906 C 73.445312 130.796875 74.714844 128.992188 76.027344 127.222656 C 77.339844 125.449219 78.695312 123.710938 80.09375 122.003906 C 81.488281 120.300781 82.929688 118.628906 84.410156 116.996094 C 85.886719 115.359375 87.40625 113.765625 88.964844 112.203125 C 90.523438 110.644531 92.117188 109.125 93.75 107.640625 C 95.382812 106.160156 97.050781 104.71875 98.753906 103.320312 C 100.457031 101.921875 102.195312 100.5625 103.964844 99.25 C 105.734375 97.9375 107.535156 96.664062 109.367188 95.441406 C 111.199219 94.214844 113.0625 93.035156 114.953125 91.902344 C 116.839844 90.765625 118.757812 89.679688 120.703125 88.640625 C 122.644531 87.601562 124.613281 86.609375 126.605469 85.664062 C 128.597656 84.722656 130.609375 83.828125 132.644531 82.984375 C 134.679688 82.140625 136.738281 81.347656 138.8125 80.601562 C 140.886719 79.859375 142.976562 79.167969 145.085938 78.527344 C 147.195312 77.886719 149.316406 77.296875 151.457031 76.761719 C 153.59375 76.226562 155.742188 75.742188 157.902344 75.3125 C 160.066406 74.882812 162.234375 74.503906 164.414062 74.183594 C 166.59375 73.859375 168.78125 73.589844 170.972656 73.371094 C 173.167969 73.15625 175.363281 72.992188 177.5625 72.886719 C 179.765625 72.777344 181.96875 72.722656 184.171875 72.722656 C 186.375 72.722656 188.578125 72.777344 190.777344 72.886719 C 192.976562 72.992188 195.175781 73.15625 197.367188 73.371094 C 199.5625 73.589844 201.746094 73.859375 203.925781 74.183594 C 206.105469 74.503906 208.277344 74.882812 210.4375 75.3125 C 212.597656 75.742188 214.75 76.226562 216.886719 76.761719 C 219.023438 77.296875 221.144531 77.886719 223.253906 78.527344 C 225.363281 79.167969 227.453125 79.859375 229.53125 80.601562 C 231.605469 81.347656 233.660156 82.140625 235.695312 82.984375 C 237.730469 83.828125 239.746094 84.722656 241.738281 85.664062 C 243.730469 86.609375 245.695312 87.601562 247.640625 88.640625 C 249.582031 89.679688 251.5 90.765625 253.390625 91.902344 C 255.28125 93.035156 257.140625 94.214844 258.972656 95.441406 C 260.804688 96.664062 262.605469 97.9375 264.375 99.25 C 266.144531 100.5625 267.882812 101.921875 269.585938 103.320312 C 271.289062 104.71875 272.957031 106.160156 274.589844 107.640625 C 276.222656 109.125 277.816406 110.644531 279.375 112.203125 C 280.933594 113.765625 282.453125 115.359375 283.933594 116.996094 C 285.414062 118.628906 286.851562 120.300781 288.25 122.003906 C 289.648438 123.710938 291.003906 125.449219 292.316406 127.222656 C 293.628906 128.992188 294.894531 130.796875 296.121094 132.628906 C 297.34375 134.464844 298.523438 136.328125 299.65625 138.21875 C 300.789062 140.113281 301.875 142.03125 302.914062 143.976562 C 303.953125 145.921875 304.941406 147.890625 305.882812 149.886719 C 306.828125 151.878906 307.71875 153.898438 308.5625 155.933594 C 309.40625 157.972656 310.199219 160.03125 310.941406 162.109375 C 311.683594 164.183594 312.375 166.277344 313.015625 168.390625 C 313.652344 170.5 314.242188 172.625 314.777344 174.765625 C 315.3125 176.90625 315.792969 179.058594 316.222656 181.222656 C 316.65625 183.386719 317.03125 185.558594 317.355469 187.742188 C 317.675781 189.921875 317.945312 192.109375 318.164062 194.308594 C 318.378906 196.503906 318.542969 198.703125 318.648438 200.90625 C 318.757812 203.109375 318.8125 205.3125 318.8125 207.519531 Z M 318.8125 207.519531 " fill-opacity="1" fill-rule="nonzero"/><path fill="#9ec2ca" d="M 239.375 207.519531 C 239.375 209.328125 239.289062 211.136719 239.109375 212.9375 C 238.933594 214.738281 238.667969 216.527344 238.316406 218.300781 C 237.960938 220.078125 237.523438 221.832031 237 223.5625 C 236.472656 225.296875 235.867188 226.996094 235.175781 228.667969 C 234.480469 230.34375 233.710938 231.976562 232.859375 233.574219 C 232.003906 235.167969 231.078125 236.71875 230.074219 238.226562 C 229.066406 239.730469 227.992188 241.183594 226.84375 242.582031 C 225.699219 243.980469 224.484375 245.320312 223.207031 246.601562 C 221.929688 247.878906 220.589844 249.09375 219.191406 250.242188 C 217.796875 251.390625 216.34375 252.46875 214.839844 253.472656 C 213.335938 254.480469 211.789062 255.410156 210.195312 256.261719 C 208.601562 257.117188 206.96875 257.886719 205.296875 258.582031 C 203.625 259.273438 201.925781 259.882812 200.195312 260.410156 C 198.464844 260.933594 196.714844 261.371094 194.941406 261.726562 C 193.167969 262.078125 191.382812 262.34375 189.582031 262.523438 C 187.78125 262.699219 185.980469 262.789062 184.171875 262.789062 C 182.363281 262.789062 180.558594 262.699219 178.757812 262.523438 C 176.960938 262.34375 175.175781 262.078125 173.402344 261.726562 C 171.628906 261.371094 169.875 260.933594 168.144531 260.410156 C 166.414062 259.882812 164.714844 259.273438 163.042969 258.582031 C 161.375 257.886719 159.742188 257.117188 158.148438 256.261719 C 156.550781 255.410156 155.003906 254.480469 153.5 253.472656 C 151.996094 252.46875 150.546875 251.390625 149.148438 250.242188 C 147.75 249.09375 146.414062 247.878906 145.132812 246.601562 C 143.855469 245.320312 142.644531 243.980469 141.496094 242.582031 C 140.347656 241.183594 139.273438 239.730469 138.269531 238.226562 C 137.265625 236.71875 136.335938 235.167969 135.484375 233.574219 C 134.632812 231.976562 133.859375 230.34375 133.167969 228.667969 C 132.476562 226.996094 131.867188 225.296875 131.34375 223.5625 C 130.816406 221.832031 130.378906 220.078125 130.027344 218.300781 C 129.671875 216.527344 129.40625 214.738281 129.230469 212.9375 C 129.054688 211.136719 128.964844 209.328125 128.964844 207.519531 C 128.964844 205.707031 129.054688 203.902344 129.230469 202.101562 C 129.40625 200.300781 129.671875 198.511719 130.027344 196.738281 C 130.378906 194.960938 130.816406 193.207031 131.34375 191.476562 C 131.867188 189.742188 132.476562 188.039062 133.167969 186.367188 C 133.859375 184.695312 134.632812 183.0625 135.484375 181.464844 C 136.335938 179.867188 137.265625 178.316406 138.269531 176.8125 C 139.273438 175.308594 140.347656 173.855469 141.496094 172.457031 C 142.644531 171.058594 143.855469 169.71875 145.132812 168.4375 C 146.414062 167.15625 147.75 165.945312 149.148438 164.796875 C 150.546875 163.648438 151.996094 162.570312 153.5 161.5625 C 155.003906 160.558594 156.550781 159.628906 158.148438 158.777344 C 159.742188 157.921875 161.375 157.148438 163.042969 156.457031 C 164.714844 155.765625 166.414062 155.15625 168.144531 154.628906 C 169.875 154.105469 171.628906 153.664062 173.402344 153.3125 C 175.175781 152.957031 176.960938 152.695312 178.757812 152.515625 C 180.558594 152.339844 182.363281 152.25 184.171875 152.25 C 185.980469 152.25 187.78125 152.339844 189.582031 152.515625 C 191.382812 152.695312 193.167969 152.957031 194.941406 153.3125 C 196.714844 153.664062 198.464844 154.105469 200.195312 154.628906 C 201.925781 155.15625 203.625 155.765625 205.296875 156.457031 C 206.96875 157.148438 208.601562 157.921875 210.195312 158.777344 C 211.789062 159.628906 213.335938 160.558594 214.839844 161.566406 C 216.34375 162.570312 217.796875 163.648438 219.191406 164.796875 C 220.589844 165.945312 221.929688 167.15625 223.207031 168.4375 C 224.484375 169.71875 225.699219 171.058594 226.84375 172.457031 C 227.992188 173.855469 229.066406 175.308594 230.074219 176.8125 C 231.078125 178.316406 232.003906 179.867188 232.859375 181.464844 C 233.710938 183.0625 234.480469 184.695312 235.175781 186.367188 C 235.867188 188.039062 236.472656 189.742188 237 191.476562 C 237.523438 193.207031 237.960938 194.960938 238.316406 196.738281 C 238.667969 198.511719 238.933594 200.300781 239.109375 202.101562 C 239.289062 203.902344 239.375 205.707031 239.375 207.519531 Z M 239.375 207.519531 " fill-opacity="1" fill-rule="nonzero"/><path fill="#000000" d="M 88.902344 112.140625 C 141.492188 59.492188 226.847656 59.492188 279.4375 112.140625 C 332.027344 164.792969 332.027344 250.246094 279.4375 302.894531 Z M 88.902344 112.140625 " fill-opacity="0.15" fill-rule="nonzero"/><path fill="#ffffff" d="M 201.378906 207.519531 C 201.378906 208.082031 201.351562 208.644531 201.296875 209.207031 C 201.242188 209.769531 201.160156 210.328125 201.046875 210.878906 C 200.9375 211.433594 200.800781 211.980469 200.636719 212.519531 C 200.476562 213.058594 200.285156 213.589844 200.070312 214.113281 C 199.855469 214.632812 199.613281 215.144531 199.347656 215.640625 C 199.082031 216.136719 198.792969 216.621094 198.480469 217.089844 C 198.167969 217.558594 197.832031 218.011719 197.472656 218.449219 C 197.117188 218.886719 196.738281 219.300781 196.339844 219.703125 C 195.941406 220.101562 195.523438 220.480469 195.085938 220.835938 C 194.652344 221.195312 194.199219 221.53125 193.730469 221.84375 C 193.261719 222.15625 192.78125 222.445312 192.28125 222.714844 C 191.785156 222.980469 191.277344 223.21875 190.757812 223.4375 C 190.234375 223.652344 189.707031 223.84375 189.167969 224.003906 C 188.625 224.167969 188.082031 224.304688 187.527344 224.417969 C 186.976562 224.527344 186.417969 224.609375 185.859375 224.664062 C 185.296875 224.71875 184.734375 224.746094 184.171875 224.746094 C 183.605469 224.746094 183.042969 224.71875 182.484375 224.664062 C 181.921875 224.609375 181.367188 224.527344 180.8125 224.417969 C 180.261719 224.304688 179.714844 224.167969 179.175781 224.003906 C 178.636719 223.84375 178.105469 223.652344 177.585938 223.4375 C 177.066406 223.21875 176.554688 222.980469 176.058594 222.714844 C 175.5625 222.445312 175.078125 222.15625 174.609375 221.84375 C 174.140625 221.53125 173.6875 221.195312 173.253906 220.835938 C 172.816406 220.480469 172.402344 220.101562 172.003906 219.703125 C 171.605469 219.300781 171.226562 218.886719 170.867188 218.449219 C 170.511719 218.011719 170.175781 217.558594 169.863281 217.089844 C 169.550781 216.621094 169.257812 216.136719 168.992188 215.640625 C 168.726562 215.144531 168.488281 214.632812 168.273438 214.113281 C 168.054688 213.589844 167.867188 213.058594 167.703125 212.519531 C 167.539062 211.980469 167.402344 211.433594 167.292969 210.878906 C 167.183594 210.328125 167.101562 209.769531 167.042969 209.207031 C 166.988281 208.644531 166.960938 208.082031 166.960938 207.519531 C 166.960938 206.953125 166.988281 206.390625 167.042969 205.832031 C 167.101562 205.269531 167.183594 204.710938 167.292969 204.15625 C 167.402344 203.605469 167.539062 203.058594 167.703125 202.519531 C 167.867188 201.976562 168.054688 201.445312 168.273438 200.925781 C 168.488281 200.40625 168.726562 199.894531 168.992188 199.398438 C 169.257812 198.898438 169.550781 198.417969 169.863281 197.949219 C 170.175781 197.476562 170.511719 197.027344 170.867188 196.589844 C 171.226562 196.152344 171.605469 195.734375 172.003906 195.335938 C 172.402344 194.9375 172.816406 194.558594 173.253906 194.203125 C 173.6875 193.84375 174.140625 193.507812 174.609375 193.195312 C 175.078125 192.878906 175.5625 192.589844 176.058594 192.324219 C 176.554688 192.058594 177.0625 191.816406 177.585938 191.601562 C 178.105469 191.386719 178.636719 191.195312 179.175781 191.03125 C 179.714844 190.867188 180.261719 190.730469 180.8125 190.621094 C 181.367188 190.511719 181.921875 190.429688 182.484375 190.375 C 183.042969 190.316406 183.605469 190.289062 184.171875 190.289062 C 184.734375 190.289062 185.296875 190.316406 185.859375 190.375 C 186.417969 190.429688 186.976562 190.511719 187.527344 190.621094 C 188.082031 190.730469 188.625 190.867188 189.167969 191.03125 C 189.707031 191.195312 190.234375 191.386719 190.757812 191.601562 C 191.277344 191.816406 191.785156 192.058594 192.28125 192.324219 C 192.78125 192.589844 193.261719 192.878906 193.730469 193.195312 C 194.199219 193.507812 194.652344 193.84375 195.085938 194.203125 C 195.523438 194.558594 195.941406 194.9375 196.339844 195.335938 C 196.738281 195.734375 197.117188 196.152344 197.472656 196.589844 C 197.832031 197.027344 198.167969 197.476562 198.480469 197.949219 C 198.792969 198.417969 199.082031 198.898438 199.347656 199.398438 C 199.613281 199.894531 199.855469 200.40625 200.070312 200.925781 C 200.285156 201.445312 200.476562 201.976562 200.636719 202.519531 C 200.800781 203.058594 200.9375 203.605469 201.046875 204.15625 C 201.160156 204.710938 201.242188 205.269531 201.296875 205.832031 C 201.351562 206.390625 201.378906 206.953125 201.378906 207.519531 Z M 201.378906 207.519531 " fill-opacity="1" fill-rule="nonzero"/><path fill="#787182" d="M 184.171875 193.875 C 187.75 193.875 191.191406 195.253906 193.808594 197.871094 C 196.421875 200.488281 197.800781 203.933594 197.800781 207.519531 C 197.800781 211.101562 196.421875 214.546875 193.808594 217.167969 C 191.191406 219.785156 187.75 221.164062 184.171875 221.164062 C 180.589844 221.164062 177.148438 219.785156 174.535156 217.167969 C 171.917969 214.546875 170.542969 211.101562 170.542969 207.519531 C 170.542969 203.933594 171.917969 200.488281 174.535156 197.871094 C 177.148438 195.253906 180.589844 193.875 184.171875 193.875 M 184.171875 190.289062 C 179.765625 190.289062 175.359375 191.945312 172.054688 195.390625 C 165.308594 202.144531 165.308594 213.03125 172.054688 219.785156 C 175.359375 223.09375 179.765625 224.886719 184.171875 224.886719 C 188.574219 224.886719 192.980469 223.230469 196.285156 219.785156 C 203.03125 213.03125 203.03125 202.144531 196.285156 195.390625 C 192.980469 191.945312 188.574219 190.289062 184.171875 190.289062 Z M 184.171875 190.289062 " fill-opacity="1" fill-rule="nonzero"/><path fill="#000000" d="M 130.753906 33.167969 L 260.578125 33.167969 L 260.578125 44.742188 L 130.753906 44.742188 Z M 130.753906 33.167969 " fill-opacity="0.15" fill-rule="nonzero"/><path fill="#000000" d="M 343.867188 64.730469 C 343.867188 65.992188 343.804688 67.253906 343.683594 68.511719 C 343.558594 69.769531 343.371094 71.019531 343.125 72.257812 C 342.878906 73.496094 342.574219 74.722656 342.207031 75.933594 C 341.839844 77.140625 341.417969 78.328125 340.933594 79.496094 C 340.449219 80.664062 339.910156 81.804688 339.316406 82.921875 C 338.71875 84.035156 338.074219 85.117188 337.371094 86.167969 C 336.667969 87.21875 335.917969 88.234375 335.117188 89.210938 C 334.316406 90.1875 333.46875 91.125 332.578125 92.019531 C 331.683594 92.910156 330.75 93.757812 329.773438 94.5625 C 328.796875 95.363281 327.785156 96.113281 326.734375 96.816406 C 325.6875 97.519531 324.605469 98.167969 323.492188 98.765625 C 322.378906 99.359375 321.238281 99.898438 320.070312 100.382812 C 318.90625 100.867188 317.71875 101.292969 316.507812 101.660156 C 315.300781 102.027344 314.078125 102.332031 312.839844 102.578125 C 311.601562 102.824219 310.355469 103.011719 309.097656 103.136719 C 307.84375 103.257812 306.582031 103.320312 305.320312 103.320312 C 304.058594 103.320312 302.796875 103.257812 301.542969 103.136719 C 300.285156 103.011719 299.039062 102.824219 297.800781 102.578125 C 296.5625 102.332031 295.339844 102.027344 294.128906 101.660156 C 292.921875 101.292969 291.734375 100.867188 290.570312 100.382812 C 289.402344 99.898438 288.261719 99.359375 287.148438 98.765625 C 286.035156 98.167969 284.953125 97.519531 283.902344 96.816406 C 282.855469 96.113281 281.839844 95.363281 280.867188 94.5625 C 279.890625 93.757812 278.957031 92.910156 278.0625 92.019531 C 277.171875 91.125 276.324219 90.1875 275.523438 89.210938 C 274.722656 88.234375 273.96875 87.21875 273.269531 86.167969 C 272.566406 85.117188 271.917969 84.035156 271.324219 82.921875 C 270.730469 81.804688 270.191406 80.664062 269.707031 79.496094 C 269.222656 78.328125 268.796875 77.140625 268.433594 75.933594 C 268.066406 74.722656 267.757812 73.496094 267.511719 72.257812 C 267.265625 71.019531 267.082031 69.769531 266.957031 68.511719 C 266.835938 67.253906 266.773438 65.992188 266.773438 64.730469 C 266.773438 63.464844 266.835938 62.203125 266.957031 60.945312 C 267.082031 59.6875 267.265625 58.441406 267.511719 57.199219 C 267.757812 55.960938 268.066406 54.734375 268.433594 53.527344 C 268.796875 52.316406 269.222656 51.128906 269.707031 49.960938 C 270.191406 48.792969 270.730469 47.652344 271.324219 46.535156 C 271.917969 45.421875 272.566406 44.339844 273.269531 43.289062 C 273.96875 42.238281 274.722656 41.222656 275.523438 40.246094 C 276.324219 39.269531 277.171875 38.335938 278.0625 37.441406 C 278.957031 36.546875 279.890625 35.699219 280.867188 34.898438 C 281.839844 34.09375 282.855469 33.34375 283.902344 32.640625 C 284.953125 31.9375 286.035156 31.289062 287.148438 30.695312 C 288.261719 30.097656 289.402344 29.558594 290.570312 29.074219 C 291.734375 28.589844 292.921875 28.164062 294.128906 27.800781 C 295.339844 27.433594 296.5625 27.125 297.800781 26.878906 C 299.039062 26.632812 300.285156 26.445312 301.542969 26.324219 C 302.796875 26.199219 304.058594 26.136719 305.320312 26.136719 C 306.582031 26.136719 307.84375 26.199219 309.097656 26.324219 C 310.355469 26.445312 311.601562 26.632812 312.839844 26.878906 C 314.078125 27.125 315.300781 27.433594 316.507812 27.800781 C 317.71875 28.164062 318.90625 28.589844 320.070312 29.074219 C 321.238281 29.558594 322.378906 30.097656 323.492188 30.695312 C 324.605469 31.289062 325.6875 31.9375 326.734375 32.640625 C 327.785156 33.34375 328.796875 34.09375 329.773438 34.898438 C 330.75 35.699219 331.683594 36.546875 332.578125 37.441406 C 333.46875 38.335938 334.316406 39.269531 335.117188 40.246094 C 335.917969 41.222656 336.667969 42.238281 337.371094 43.289062 C 338.074219 44.339844 338.71875 45.421875 339.316406 46.535156 C 339.910156 47.652344 340.449219 48.792969 340.933594 49.960938 C 341.417969 51.128906 341.839844 52.316406 342.207031 53.527344 C 342.574219 54.734375 342.878906 55.960938 343.125 57.199219 C 343.371094 58.441406 343.558594 59.6875 343.683594 60.945312 C 343.804688 62.203125 343.867188 63.464844 343.867188 64.730469 Z M 343.867188 64.730469 " fill-opacity="0.15" fill-rule="nonzero"/><path fill="#000000" d="M 323.21875 64.730469 C 323.21875 65.316406 323.1875 65.902344 323.128906 66.484375 C 323.074219 67.070312 322.988281 67.648438 322.875 68.222656 C 322.757812 68.800781 322.617188 69.367188 322.445312 69.929688 C 322.277344 70.492188 322.078125 71.042969 321.855469 71.585938 C 321.628906 72.128906 321.378906 72.65625 321.105469 73.175781 C 320.828125 73.691406 320.527344 74.195312 320.199219 74.683594 C 319.875 75.171875 319.527344 75.640625 319.15625 76.097656 C 318.78125 76.550781 318.390625 76.984375 317.976562 77.398438 C 317.5625 77.8125 317.125 78.207031 316.671875 78.578125 C 316.21875 78.953125 315.75 79.300781 315.261719 79.628906 C 314.777344 79.953125 314.273438 80.253906 313.757812 80.53125 C 313.238281 80.808594 312.710938 81.058594 312.167969 81.28125 C 311.628906 81.507812 311.074219 81.703125 310.515625 81.875 C 309.953125 82.046875 309.386719 82.1875 308.8125 82.300781 C 308.238281 82.417969 307.65625 82.503906 307.074219 82.558594 C 306.492188 82.617188 305.90625 82.648438 305.320312 82.648438 C 304.734375 82.648438 304.148438 82.617188 303.566406 82.558594 C 302.980469 82.503906 302.402344 82.417969 301.828125 82.300781 C 301.253906 82.1875 300.6875 82.046875 300.125 81.875 C 299.5625 81.703125 299.011719 81.507812 298.472656 81.28125 C 297.929688 81.058594 297.398438 80.808594 296.882812 80.53125 C 296.367188 80.253906 295.863281 79.953125 295.375 79.628906 C 294.890625 79.300781 294.417969 78.953125 293.964844 78.578125 C 293.511719 78.207031 293.078125 77.8125 292.664062 77.398438 C 292.25 76.984375 291.855469 76.550781 291.484375 76.097656 C 291.113281 75.640625 290.765625 75.171875 290.4375 74.683594 C 290.113281 74.195312 289.8125 73.691406 289.535156 73.175781 C 289.261719 72.65625 289.007812 72.128906 288.785156 71.585938 C 288.5625 71.042969 288.363281 70.492188 288.195312 69.929688 C 288.023438 69.367188 287.882812 68.800781 287.765625 68.222656 C 287.652344 67.648438 287.566406 67.070312 287.507812 66.484375 C 287.453125 65.902344 287.421875 65.316406 287.421875 64.730469 C 287.421875 64.140625 287.453125 63.558594 287.507812 62.972656 C 287.566406 62.390625 287.652344 61.808594 287.765625 61.234375 C 287.882812 60.65625 288.023438 60.089844 288.195312 59.527344 C 288.363281 58.964844 288.5625 58.414062 288.785156 57.871094 C 289.007812 57.332031 289.261719 56.800781 289.535156 56.28125 C 289.8125 55.765625 290.113281 55.261719 290.4375 54.773438 C 290.765625 54.285156 291.113281 53.816406 291.484375 53.363281 C 291.855469 52.910156 292.25 52.472656 292.664062 52.058594 C 293.078125 51.644531 293.511719 51.25 293.964844 50.878906 C 294.417969 50.507812 294.890625 50.15625 295.375 49.832031 C 295.863281 49.503906 296.367188 49.203125 296.882812 48.925781 C 297.398438 48.652344 297.929688 48.398438 298.472656 48.175781 C 299.011719 47.949219 299.5625 47.753906 300.125 47.582031 C 300.6875 47.414062 301.253906 47.269531 301.828125 47.15625 C 302.402344 47.042969 302.980469 46.957031 303.566406 46.898438 C 304.148438 46.839844 304.734375 46.8125 305.320312 46.8125 C 305.90625 46.8125 306.492188 46.839844 307.074219 46.898438 C 307.65625 46.957031 308.238281 47.042969 308.8125 47.15625 C 309.386719 47.269531 309.953125 47.414062 310.515625 47.582031 C 311.074219 47.753906 311.628906 47.949219 312.167969 48.175781 C 312.710938 48.398438 313.238281 48.652344 313.757812 48.925781 C 314.273438 49.203125 314.777344 49.503906 315.261719 49.832031 C 315.75 50.15625 316.21875 50.507812 316.671875 50.878906 C 317.125 51.25 317.5625 51.644531 317.976562 52.058594 C 318.390625 52.472656 318.78125 52.910156 319.15625 53.363281 C 319.527344 53.816406 319.875 54.285156 320.199219 54.773438 C 320.527344 55.261719 320.828125 55.765625 321.105469 56.28125 C 321.378906 56.800781 321.628906 57.332031 321.855469 57.871094 C 322.078125 58.414062 322.277344 58.964844 322.445312 59.527344 C 322.617188 60.089844 322.757812 60.65625 322.875 61.234375 C 322.988281 61.808594 323.074219 62.390625 323.128906 62.972656 C 323.1875 63.558594 323.21875 64.140625 323.21875 64.730469 Z M 323.21875 64.730469 " fill-opacity="0.15" fill-rule="nonzero"/><path fill="#e4e5e5" d="M 91.519531 60.179688 C 91.519531 61.132812 91.472656 62.082031 91.378906 63.03125 C 91.285156 63.980469 91.144531 64.921875 90.960938 65.855469 C 90.773438 66.789062 90.542969 67.710938 90.269531 68.621094 C 89.992188 69.535156 89.671875 70.429688 89.308594 71.308594 C 88.945312 72.191406 88.539062 73.050781 88.089844 73.890625 C 87.640625 74.730469 87.152344 75.546875 86.625 76.335938 C 86.09375 77.128906 85.527344 77.894531 84.925781 78.628906 C 84.320312 79.367188 83.683594 80.070312 83.011719 80.746094 C 82.339844 81.417969 81.632812 82.058594 80.898438 82.660156 C 80.164062 83.265625 79.398438 83.832031 78.609375 84.359375 C 77.816406 84.890625 77.003906 85.378906 76.164062 85.828125 C 75.324219 86.277344 74.464844 86.683594 73.585938 87.046875 C 72.707031 87.414062 71.8125 87.734375 70.902344 88.011719 C 69.992188 88.285156 69.070312 88.519531 68.136719 88.703125 C 67.203125 88.890625 66.265625 89.027344 65.316406 89.121094 C 64.371094 89.214844 63.421875 89.261719 62.472656 89.261719 C 61.519531 89.261719 60.570312 89.214844 59.625 89.121094 C 58.675781 89.027344 57.738281 88.890625 56.804688 88.703125 C 55.871094 88.519531 54.949219 88.285156 54.039062 88.011719 C 53.128906 87.734375 52.234375 87.414062 51.355469 87.046875 C 50.476562 86.683594 49.617188 86.277344 48.777344 85.828125 C 47.9375 85.378906 47.125 84.890625 46.332031 84.359375 C 45.542969 83.832031 44.777344 83.265625 44.042969 82.660156 C 43.308594 82.058594 42.601562 81.417969 41.929688 80.746094 C 41.257812 80.070312 40.621094 79.367188 40.015625 78.628906 C 39.414062 77.894531 38.847656 77.128906 38.316406 76.335938 C 37.789062 75.546875 37.300781 74.730469 36.851562 73.890625 C 36.402344 73.050781 35.996094 72.191406 35.632812 71.308594 C 35.269531 70.429688 34.949219 69.535156 34.671875 68.621094 C 34.398438 67.710938 34.167969 66.789062 33.980469 65.855469 C 33.796875 64.921875 33.65625 63.980469 33.5625 63.03125 C 33.46875 62.082031 33.421875 61.132812 33.421875 60.179688 C 33.421875 59.226562 33.46875 58.277344 33.5625 57.332031 C 33.65625 56.382812 33.796875 55.441406 33.980469 54.507812 C 34.167969 53.574219 34.398438 52.648438 34.671875 51.738281 C 34.949219 50.828125 35.269531 49.929688 35.632812 49.050781 C 35.996094 48.171875 36.402344 47.3125 36.851562 46.472656 C 37.300781 45.632812 37.789062 44.816406 38.316406 44.023438 C 38.847656 43.230469 39.414062 42.46875 40.015625 41.730469 C 40.621094 40.996094 41.257812 40.289062 41.929688 39.617188 C 42.601562 38.941406 43.308594 38.304688 44.042969 37.699219 C 44.777344 37.097656 45.542969 36.527344 46.332031 36 C 47.125 35.472656 47.9375 34.980469 48.777344 34.53125 C 49.617188 34.082031 50.476562 33.675781 51.355469 33.3125 C 52.234375 32.949219 53.128906 32.628906 54.039062 32.351562 C 54.949219 32.074219 55.871094 31.84375 56.804688 31.65625 C 57.738281 31.472656 58.675781 31.332031 59.625 31.238281 C 60.570312 31.144531 61.519531 31.097656 62.472656 31.097656 C 63.421875 31.097656 64.371094 31.144531 65.316406 31.238281 C 66.265625 31.332031 67.203125 31.472656 68.136719 31.65625 C 69.070312 31.84375 69.992188 32.074219 70.902344 32.351562 C 71.8125 32.628906 72.707031 32.949219 73.585938 33.3125 C 74.464844 33.675781 75.324219 34.082031 76.164062 34.53125 C 77.003906 34.980469 77.816406 35.472656 78.609375 36 C 79.398438 36.527344 80.164062 37.097656 80.898438 37.699219 C 81.632812 38.304688 82.339844 38.941406 83.011719 39.617188 C 83.683594 40.289062 84.320312 40.996094 84.925781 41.730469 C 85.527344 42.46875 86.09375 43.230469 86.625 44.023438 C 87.152344 44.816406 87.640625 45.632812 88.089844 46.472656 C 88.539062 47.3125 88.945312 48.171875 89.308594 49.050781 C 89.671875 49.929688 89.992188 50.828125 90.269531 51.738281 C 90.542969 52.648438 90.773438 53.574219 90.960938 54.507812 C 91.144531 55.441406 91.285156 56.382812 91.378906 57.332031 C 91.472656 58.277344 91.519531 59.226562 91.519531 60.179688 Z M 91.519531 60.179688 " fill-opacity="1" fill-rule="nonzero"/><path fill="#e4e5e5" d="M 122.496094 44.742188 C 122.496094 45.503906 122.421875 46.257812 122.273438 47.003906 C 122.125 47.75 121.90625 48.472656 121.613281 49.175781 C 121.324219 49.875 120.96875 50.542969 120.546875 51.175781 C 120.125 51.808594 119.644531 52.394531 119.109375 52.929688 C 118.570312 53.46875 117.988281 53.949219 117.355469 54.371094 C 116.722656 54.792969 116.058594 55.148438 115.355469 55.441406 C 114.65625 55.730469 113.929688 55.949219 113.1875 56.097656 C 112.441406 56.246094 111.691406 56.320312 110.929688 56.320312 C 110.171875 56.320312 109.417969 56.246094 108.675781 56.097656 C 107.929688 55.949219 107.207031 55.730469 106.503906 55.441406 C 105.804688 55.148438 105.136719 54.792969 104.503906 54.371094 C 103.875 53.949219 103.289062 53.46875 102.753906 52.929688 C 102.214844 52.394531 101.738281 51.808594 101.316406 51.175781 C 100.894531 50.542969 100.535156 49.875 100.246094 49.175781 C 99.957031 48.472656 99.738281 47.75 99.589844 47.003906 C 99.441406 46.257812 99.367188 45.503906 99.367188 44.742188 C 99.367188 43.984375 99.441406 43.230469 99.589844 42.484375 C 99.738281 41.738281 99.957031 41.015625 100.246094 40.3125 C 100.535156 39.609375 100.894531 38.945312 101.316406 38.3125 C 101.738281 37.679688 102.214844 37.09375 102.753906 36.558594 C 103.289062 36.019531 103.875 35.539062 104.503906 35.117188 C 105.136719 34.695312 105.804688 34.339844 106.503906 34.046875 C 107.207031 33.757812 107.929688 33.539062 108.675781 33.390625 C 109.417969 33.242188 110.171875 33.167969 110.929688 33.167969 C 111.691406 33.167969 112.441406 33.242188 113.1875 33.390625 C 113.929688 33.539062 114.65625 33.757812 115.355469 34.046875 C 116.058594 34.339844 116.722656 34.695312 117.355469 35.117188 C 117.988281 35.539062 118.570312 36.019531 119.109375 36.558594 C 119.644531 37.09375 120.125 37.679688 120.546875 38.3125 C 120.96875 38.945312 121.324219 39.609375 121.613281 40.3125 C 121.90625 41.015625 122.125 41.738281 122.273438 42.484375 C 122.421875 43.230469 122.496094 43.984375 122.496094 44.742188 Z M 122.496094 44.742188 " fill-opacity="1" fill-rule="nonzero"/><path fill="#e4e5e5" d="M 231.804688 52.460938 L 219.550781 52.460938 C 218.726562 52.460938 218.175781 51.773438 218.175781 51.085938 L 218.175781 26.6875 C 218.175781 25.863281 218.863281 25.308594 219.550781 25.308594 L 231.804688 25.308594 C 232.628906 25.308594 233.179688 26 233.179688 26.6875 L 233.179688 51.085938 C 233.179688 51.910156 232.628906 52.460938 231.804688 52.460938 Z M 231.804688 52.460938 " fill-opacity="1" fill-rule="nonzero"/><path fill="#e4e5e5" d="M 311.101562 140.398438 L 311.101562 224.335938 L 254.796875 280.707031 L 246.535156 272.296875 L 299.261719 219.511719 L 299.261719 140.398438 Z M 311.101562 140.398438 " fill-opacity="1" fill-rule="nonzero"/><path fill="#fcca64" d="M 241.304688 296.832031 L 229.878906 285.390625 C 228.914062 284.425781 228.914062 283.050781 229.878906 282.085938 L 245.019531 266.921875 C 245.984375 265.957031 247.359375 265.957031 248.324219 266.921875 L 259.75 278.363281 C 260.714844 279.328125 260.714844 280.707031 259.75 281.671875 L 244.609375 296.832031 C 243.644531 297.796875 242.265625 297.796875 241.304688 296.832031 Z M 241.304688 296.832031 " fill-opacity="1" fill-rule="nonzero"/><path fill="#fcca64" d="M 315.78125 145.632812 L 294.996094 145.632812 L 294.996094 60.457031 C 294.996094 58.25 296.785156 56.460938 298.988281 56.460938 L 311.929688 56.460938 C 314.128906 56.460938 315.921875 58.25 315.921875 60.457031 L 315.921875 145.632812 Z M 315.78125 145.632812 " fill-opacity="1" fill-rule="nonzero"/><path fill="#000000" d="M 57.515625 319.160156 L 41.683594 319.160156 C 40.855469 319.160156 40.167969 318.46875 40.167969 317.644531 L 40.167969 312.542969 C 40.167969 311.71875 40.855469 311.027344 41.683594 311.027344 L 57.515625 311.027344 C 58.339844 311.027344 59.027344 311.71875 59.027344 312.542969 L 59.027344 317.644531 C 59.027344 318.46875 58.339844 319.160156 57.515625 319.160156 Z M 57.515625 319.160156 " fill-opacity="0.15" fill-rule="nonzero"/><path fill="#000000" d="M 57.515625 331.976562 L 41.683594 331.976562 C 40.855469 331.976562 40.167969 331.289062 40.167969 330.460938 L 40.167969 325.363281 C 40.167969 324.535156 40.855469 323.847656 41.683594 323.847656 L 57.515625 323.847656 C 58.339844 323.847656 59.027344 324.535156 59.027344 325.363281 L 59.027344 330.460938 C 59.027344 331.289062 58.339844 331.976562 57.515625 331.976562 Z M 57.515625 331.976562 " fill-opacity="0.15" fill-rule="nonzero"/><path fill="#000000" d="M 332.578125 319.160156 L 316.746094 319.160156 C 315.921875 319.160156 315.230469 318.46875 315.230469 317.644531 L 315.230469 312.542969 C 315.230469 311.71875 315.921875 311.027344 316.746094 311.027344 L 332.578125 311.027344 C 333.40625 311.027344 334.09375 311.71875 334.09375 312.542969 L 334.09375 317.644531 C 334.09375 318.46875 333.40625 319.160156 332.578125 319.160156 Z M 332.578125 319.160156 " fill-opacity="0.15" fill-rule="nonzero"/><path fill="#000000" d="M 332.578125 331.976562 L 316.746094 331.976562 C 315.921875 331.976562 315.230469 331.289062 315.230469 330.460938 L 315.230469 325.363281 C 315.230469 324.535156 315.921875 323.847656 316.746094 323.847656 L 332.578125 323.847656 C 333.40625 323.847656 334.09375 324.535156 334.09375 325.363281 L 334.09375 330.460938 C 334.09375 331.289062 333.40625 331.976562 332.578125 331.976562 Z M 332.578125 331.976562 " fill-opacity="0.15" fill-rule="nonzero"/><path fill="#000000" d="M 294.996094 140.398438 L 315.78125 140.398438 L 315.78125 145.496094 L 294.996094 145.496094 Z M 294.996094 140.398438 " fill-opacity="0.15" fill-rule="nonzero"/><path fill="#000000" d="M 48.980469 78.234375 L 43.609375 72.859375 C 42.644531 71.894531 42.644531 70.519531 43.609375 69.554688 L 71.832031 41.296875 C 72.796875 40.332031 74.171875 40.332031 75.136719 41.296875 L 80.503906 46.671875 C 81.46875 47.636719 81.46875 49.015625 80.503906 49.980469 L 52.144531 78.234375 C 51.320312 79.0625 49.804688 79.0625 48.980469 78.234375 Z M 48.980469 78.234375 " fill-opacity="0.15" fill-rule="nonzero"/><path fill="#000000" d="M 116.851562 44.742188 C 116.851562 45.132812 116.8125 45.519531 116.738281 45.898438 C 116.660156 46.28125 116.546875 46.652344 116.398438 47.011719 C 116.25 47.371094 116.070312 47.714844 115.851562 48.035156 C 115.636719 48.359375 115.390625 48.660156 115.117188 48.933594 C 114.839844 49.210938 114.542969 49.457031 114.21875 49.671875 C 113.894531 49.886719 113.554688 50.070312 113.195312 50.21875 C 112.835938 50.367188 112.464844 50.480469 112.085938 50.558594 C 111.703125 50.632812 111.320312 50.671875 110.929688 50.671875 C 110.542969 50.671875 110.15625 50.632812 109.777344 50.558594 C 109.394531 50.480469 109.023438 50.367188 108.664062 50.21875 C 108.304688 50.070312 107.964844 49.886719 107.640625 49.671875 C 107.316406 49.457031 107.019531 49.210938 106.746094 48.933594 C 106.46875 48.660156 106.222656 48.359375 106.007812 48.035156 C 105.792969 47.714844 105.609375 47.371094 105.460938 47.011719 C 105.3125 46.652344 105.199219 46.28125 105.125 45.898438 C 105.046875 45.519531 105.011719 45.132812 105.011719 44.742188 C 105.011719 44.355469 105.046875 43.96875 105.125 43.585938 C 105.199219 43.207031 105.3125 42.835938 105.460938 42.476562 C 105.609375 42.117188 105.792969 41.773438 106.007812 41.453125 C 106.222656 41.128906 106.46875 40.828125 106.746094 40.554688 C 107.019531 40.277344 107.316406 40.03125 107.640625 39.816406 C 107.964844 39.601562 108.304688 39.417969 108.664062 39.269531 C 109.023438 39.121094 109.394531 39.007812 109.777344 38.929688 C 110.15625 38.855469 110.542969 38.816406 110.929688 38.816406 C 111.320312 38.816406 111.703125 38.855469 112.085938 38.929688 C 112.464844 39.007812 112.835938 39.121094 113.195312 39.269531 C 113.554688 39.417969 113.894531 39.601562 114.21875 39.816406 C 114.542969 40.03125 114.839844 40.277344 115.117188 40.554688 C 115.390625 40.828125 115.636719 41.128906 115.851562 41.453125 C 116.070312 41.773438 116.25 42.117188 116.398438 42.476562 C 116.546875 42.835938 116.660156 43.207031 116.738281 43.585938 C 116.8125 43.96875 116.851562 44.355469 116.851562 44.742188 Z M 116.851562 44.742188 " fill-opacity="0.15" fill-rule="nonzero"/><g fill="#000000" fill-opacity="0.4"><g transform="translate(111.989379, 171.737077)"><g><path d="M 31.96875 -30.1875 L 22.296875 -21.0625 L 8.546875 -43.65625 L 15.984375 -15.09375 L 10.0625 -9.5 L -10.296875 -27.125 L 3.921875 -3.703125 L 0 0 L -20.234375 -33.21875 L -9.140625 -43.703125 L 6.9375 -29.375 L 0.5625 -52.875 L 11.765625 -63.453125 Z M 31.96875 -30.1875 "/></g></g></g><g fill="#000000" fill-opacity="0.4"><g transform="translate(143.577204, 142.500748)"><g><path d="M 4.484375 -29.484375 L 12.640625 -13.75 L 14.96875 -33.625 L 20.875 -35.96875 L 16.9375 -6.703125 C 16.53125 -3.828125 15.890625 -1.488281 15.015625 0.3125 C 14.140625 2.113281 13.007812 3.628906 11.625 4.859375 C 10.238281 6.097656 8.585938 7.148438 6.671875 8.015625 C 4.765625 8.878906 2.566406 9.804688 0.078125 10.796875 L -0.609375 6.625 C 0.628906 6.132812 1.765625 5.660156 2.796875 5.203125 C 3.835938 4.753906 4.644531 4.304688 5.21875 3.859375 C 5.96875 3.304688 6.414062 2.664062 6.5625 1.9375 C 6.707031 1.21875 6.554688 0.300781 6.109375 -0.8125 C 5.816406 -1.550781 5.414062 -2.375 4.90625 -3.28125 C 4.40625 -4.195312 3.863281 -5.171875 3.28125 -6.203125 L -7.265625 -24.828125 Z M 4.484375 -29.484375 "/></g></g></g><g fill="#000000" fill-opacity="0.4"><g transform="translate(168.79026, 133.125327)"><g/></g></g><g fill="#000000" fill-opacity="0.4"><g transform="translate(175.571481, 130.095612)"><g><path d="M 1.390625 -14.03125 L 12.625 -13.59375 C 12.613281 -13.46875 12.550781 -13.175781 12.4375 -12.71875 C 12.320312 -12.269531 12.191406 -11.726562 12.046875 -11.09375 C 11.898438 -10.46875 11.765625 -9.773438 11.640625 -9.015625 C 11.515625 -8.265625 11.4375 -7.570312 11.40625 -6.9375 C 11.394531 -6.53125 11.421875 -6.109375 11.484375 -5.671875 C 11.546875 -5.234375 11.671875 -4.816406 11.859375 -4.421875 C 12.046875 -4.035156 12.320312 -3.703125 12.6875 -3.421875 C 13.0625 -3.148438 13.523438 -3.003906 14.078125 -2.984375 C 15.117188 -2.941406 15.960938 -3.335938 16.609375 -4.171875 C 17.265625 -5.015625 17.878906 -6.566406 18.453125 -8.828125 L 25.59375 -37.078125 L 38.578125 -36.578125 L 31.640625 -9.3125 C 31.046875 -6.988281 30.082031 -5.125 28.75 -3.71875 C 27.414062 -2.3125 25.90625 -1.238281 24.21875 -0.5 C 22.53125 0.238281 20.742188 0.703125 18.859375 0.890625 C 16.972656 1.078125 15.171875 1.132812 13.453125 1.0625 C 11.453125 0.988281 9.738281 0.789062 8.3125 0.46875 C 6.894531 0.15625 5.644531 -0.257812 4.5625 -0.78125 C 3.476562 -1.300781 2.507812 -1.925781 1.65625 -2.65625 C 0.800781 -3.394531 -0.046875 -4.203125 -0.890625 -5.078125 Z M 1.390625 -14.03125 "/></g></g></g><g fill="#000000" fill-opacity="0.4"><g transform="translate(204.716082, 130.409475)"><g><path d="M 12.296875 -20.546875 C 14.546875 -20.773438 16.75 -20.726562 18.90625 -20.40625 C 21.070312 -20.082031 23.390625 -19.460938 25.859375 -18.546875 C 28.253906 -17.648438 30.164062 -16.71875 31.59375 -15.75 C 33.019531 -14.789062 34.066406 -13.78125 34.734375 -12.71875 C 35.410156 -11.65625 35.753906 -10.566406 35.765625 -9.453125 C 35.773438 -8.347656 35.550781 -7.179688 35.09375 -5.953125 C 34.832031 -5.234375 34.5 -4.476562 34.09375 -3.6875 C 33.6875 -2.90625 33.320312 -2.253906 33 -1.734375 L 25.765625 9.625 L 16.734375 6.25 L 17.0625 2.296875 L 16.71875 2.171875 C 15.03125 3.023438 13.257812 3.5 11.40625 3.59375 C 9.5625 3.695312 7.851562 3.453125 6.28125 2.859375 C 5.382812 2.523438 4.554688 2.066406 3.796875 1.484375 C 3.035156 0.898438 2.421875 0.210938 1.953125 -0.578125 C 1.484375 -1.378906 1.195312 -2.28125 1.09375 -3.28125 C 0.988281 -4.28125 1.160156 -5.375 1.609375 -6.5625 C 2.335938 -8.507812 3.445312 -9.851562 4.9375 -10.59375 C 6.4375 -11.332031 8.164062 -11.664062 10.125 -11.59375 C 12.082031 -11.53125 14.179688 -11.160156 16.421875 -10.484375 C 18.660156 -9.816406 20.882812 -9.070312 23.09375 -8.25 C 23.320312 -8.59375 23.617188 -9.085938 23.984375 -9.734375 C 24.347656 -10.390625 24.628906 -10.976562 24.828125 -11.5 C 25.078125 -12.175781 25.132812 -12.867188 25 -13.578125 C 24.863281 -14.296875 24.234375 -14.863281 23.109375 -15.28125 C 21.796875 -15.769531 20.6875 -15.742188 19.78125 -15.203125 C 18.882812 -14.671875 18.140625 -13.898438 17.546875 -12.890625 L 9.34375 -15.953125 Z M 21.5 -5.84375 L 20.484375 -6.21875 C 19.398438 -6.625 18.421875 -6.828125 17.546875 -6.828125 C 16.671875 -6.835938 15.914062 -6.703125 15.28125 -6.421875 C 14.65625 -6.148438 14.125 -5.773438 13.6875 -5.296875 C 13.25 -4.816406 12.929688 -4.300781 12.734375 -3.75 C 12.390625 -2.851562 12.363281 -2.09375 12.65625 -1.46875 C 12.957031 -0.84375 13.429688 -0.410156 14.078125 -0.171875 C 14.859375 0.117188 15.734375 0.128906 16.703125 -0.140625 C 17.679688 -0.421875 18.445312 -0.992188 19 -1.859375 Z M 21.5 -5.84375 "/></g></g></g><g fill="#000000" fill-opacity="0.4"><g transform="translate(230.239364, 136.473609)"><g><path d="M 26.71875 -5.03125 C 27.863281 -5.050781 29.050781 -4.953125 30.28125 -4.734375 C 31.320312 -4.523438 32.472656 -4.15625 33.734375 -3.625 C 34.992188 -3.101562 36.210938 -2.296875 37.390625 -1.203125 C 38.785156 0.109375 39.523438 1.40625 39.609375 2.6875 C 39.691406 3.976562 39.34375 5.125 38.5625 6.125 L 38.8125 6.375 C 40.0625 6.394531 41.3125 6.523438 42.5625 6.765625 C 43.613281 6.972656 44.753906 7.328125 45.984375 7.828125 C 47.222656 8.328125 48.347656 9.050781 49.359375 10 C 50.878906 11.425781 51.722656 13 51.890625 14.71875 C 52.066406 16.4375 51.539062 17.953125 50.3125 19.265625 C 49.6875 19.929688 48.738281 20.707031 47.46875 21.59375 C 46.195312 22.488281 44.800781 23.457031 43.28125 24.5 L 33.46875 31.3125 L 24.84375 23.25 L 37.90625 14.03125 C 38.394531 13.675781 38.875 13.335938 39.34375 13.015625 C 39.8125 12.691406 40.164062 12.398438 40.40625 12.140625 C 40.789062 11.722656 41 11.265625 41.03125 10.765625 C 41.0625 10.273438 40.851562 9.820312 40.40625 9.40625 C 39.863281 8.894531 39.164062 8.609375 38.3125 8.546875 C 37.457031 8.492188 36.773438 8.476562 36.265625 8.5 L 20.734375 19.390625 L 12.546875 11.75 L 25.640625 2.578125 C 26.054688 2.253906 26.488281 1.9375 26.9375 1.625 C 27.394531 1.3125 27.773438 1 28.078125 0.6875 C 28.492188 0.238281 28.722656 -0.222656 28.765625 -0.703125 C 28.804688 -1.191406 28.609375 -1.640625 28.171875 -2.046875 C 27.648438 -2.535156 26.96875 -2.816406 26.125 -2.890625 C 25.28125 -2.960938 24.601562 -2.984375 24.09375 -2.953125 L 8.484375 7.9375 L -0.4375 -0.40625 L 21.15625 -15.5 L 28.28125 -8.828125 L 26.453125 -5.265625 Z M 26.71875 -5.03125 "/></g></g></g><g fill="#09b3e4" fill-opacity="1"><g transform="translate(109.341415, 169.089123)"><g><path d="M 31.96875 -30.1875 L 22.296875 -21.0625 L 8.546875 -43.65625 L 15.984375 -15.09375 L 10.0625 -9.5 L -10.296875 -27.125 L 3.921875 -3.703125 L 0 0 L -20.234375 -33.21875 L -9.140625 -43.703125 L 6.9375 -29.375 L 0.5625 -52.875 L 11.765625 -63.453125 Z M 31.96875 -30.1875 "/></g></g></g><g fill="#09b3e4" fill-opacity="1"><g transform="translate(140.929241, 139.852795)"><g><path d="M 4.484375 -29.484375 L 12.640625 -13.75 L 14.96875 -33.625 L 20.875 -35.96875 L 16.9375 -6.703125 C 16.53125 -3.828125 15.890625 -1.488281 15.015625 0.3125 C 14.140625 2.113281 13.007812 3.628906 11.625 4.859375 C 10.238281 6.097656 8.585938 7.148438 6.671875 8.015625 C 4.765625 8.878906 2.566406 9.804688 0.078125 10.796875 L -0.609375 6.625 C 0.628906 6.132812 1.765625 5.660156 2.796875 5.203125 C 3.835938 4.753906 4.644531 4.304688 5.21875 3.859375 C 5.96875 3.304688 6.414062 2.664062 6.5625 1.9375 C 6.707031 1.21875 6.554688 0.300781 6.109375 -0.8125 C 5.816406 -1.550781 5.414062 -2.375 4.90625 -3.28125 C 4.40625 -4.195312 3.863281 -5.171875 3.28125 -6.203125 L -7.265625 -24.828125 Z M 4.484375 -29.484375 "/></g></g></g><g fill="#09b3e4" fill-opacity="1"><g transform="translate(166.142304, 130.477381)"><g/></g></g><g fill="#f57d11" fill-opacity="1"><g transform="translate(172.92351, 127.447659)"><g><path d="M 1.390625 -14.03125 L 12.625 -13.59375 C 12.613281 -13.46875 12.550781 -13.175781 12.4375 -12.71875 C 12.320312 -12.269531 12.191406 -11.726562 12.046875 -11.09375 C 11.898438 -10.46875 11.765625 -9.773438 11.640625 -9.015625 C 11.515625 -8.265625 11.4375 -7.570312 11.40625 -6.9375 C 11.394531 -6.53125 11.421875 -6.109375 11.484375 -5.671875 C 11.546875 -5.234375 11.671875 -4.816406 11.859375 -4.421875 C 12.046875 -4.035156 12.320312 -3.703125 12.6875 -3.421875 C 13.0625 -3.148438 13.523438 -3.003906 14.078125 -2.984375 C 15.117188 -2.941406 15.960938 -3.335938 16.609375 -4.171875 C 17.265625 -5.015625 17.878906 -6.566406 18.453125 -8.828125 L 25.59375 -37.078125 L 38.578125 -36.578125 L 31.640625 -9.3125 C 31.046875 -6.988281 30.082031 -5.125 28.75 -3.71875 C 27.414062 -2.3125 25.90625 -1.238281 24.21875 -0.5 C 22.53125 0.238281 20.742188 0.703125 18.859375 0.890625 C 16.972656 1.078125 15.171875 1.132812 13.453125 1.0625 C 11.453125 0.988281 9.738281 0.789062 8.3125 0.46875 C 6.894531 0.15625 5.644531 -0.257812 4.5625 -0.78125 C 3.476562 -1.300781 2.507812 -1.925781 1.65625 -2.65625 C 0.800781 -3.394531 -0.046875 -4.203125 -0.890625 -5.078125 Z M 1.390625 -14.03125 "/></g></g></g><g fill="#f57d11" fill-opacity="1"><g transform="translate(202.068115, 127.761521)"><g><path d="M 12.296875 -20.546875 C 14.546875 -20.773438 16.75 -20.726562 18.90625 -20.40625 C 21.070312 -20.082031 23.390625 -19.460938 25.859375 -18.546875 C 28.253906 -17.648438 30.164062 -16.71875 31.59375 -15.75 C 33.019531 -14.789062 34.066406 -13.78125 34.734375 -12.71875 C 35.410156 -11.65625 35.753906 -10.566406 35.765625 -9.453125 C 35.773438 -8.347656 35.550781 -7.179688 35.09375 -5.953125 C 34.832031 -5.234375 34.5 -4.476562 34.09375 -3.6875 C 33.6875 -2.90625 33.320312 -2.253906 33 -1.734375 L 25.765625 9.625 L 16.734375 6.25 L 17.0625 2.296875 L 16.71875 2.171875 C 15.03125 3.023438 13.257812 3.5 11.40625 3.59375 C 9.5625 3.695312 7.851562 3.453125 6.28125 2.859375 C 5.382812 2.523438 4.554688 2.066406 3.796875 1.484375 C 3.035156 0.898438 2.421875 0.210938 1.953125 -0.578125 C 1.484375 -1.378906 1.195312 -2.28125 1.09375 -3.28125 C 0.988281 -4.28125 1.160156 -5.375 1.609375 -6.5625 C 2.335938 -8.507812 3.445312 -9.851562 4.9375 -10.59375 C 6.4375 -11.332031 8.164062 -11.664062 10.125 -11.59375 C 12.082031 -11.53125 14.179688 -11.160156 16.421875 -10.484375 C 18.660156 -9.816406 20.882812 -9.070312 23.09375 -8.25 C 23.320312 -8.59375 23.617188 -9.085938 23.984375 -9.734375 C 24.347656 -10.390625 24.628906 -10.976562 24.828125 -11.5 C 25.078125 -12.175781 25.132812 -12.867188 25 -13.578125 C 24.863281 -14.296875 24.234375 -14.863281 23.109375 -15.28125 C 21.796875 -15.769531 20.6875 -15.742188 19.78125 -15.203125 C 18.882812 -14.671875 18.140625 -13.898438 17.546875 -12.890625 L 9.34375 -15.953125 Z M 21.5 -5.84375 L 20.484375 -6.21875 C 19.398438 -6.625 18.421875 -6.828125 17.546875 -6.828125 C 16.671875 -6.835938 15.914062 -6.703125 15.28125 -6.421875 C 14.65625 -6.148438 14.125 -5.773438 13.6875 -5.296875 C 13.25 -4.816406 12.929688 -4.300781 12.734375 -3.75 C 12.390625 -2.851562 12.363281 -2.09375 12.65625 -1.46875 C 12.957031 -0.84375 13.429688 -0.410156 14.078125 -0.171875 C 14.859375 0.117188 15.734375 0.128906 16.703125 -0.140625 C 17.679688 -0.421875 18.445312 -0.992188 19 -1.859375 Z M 21.5 -5.84375 "/></g></g></g><g fill="#f57d11" fill-opacity="1"><g transform="translate(227.591396, 133.825663)"><g><path d="M 26.71875 -5.03125 C 27.863281 -5.050781 29.050781 -4.953125 30.28125 -4.734375 C 31.320312 -4.523438 32.472656 -4.15625 33.734375 -3.625 C 34.992188 -3.101562 36.210938 -2.296875 37.390625 -1.203125 C 38.785156 0.109375 39.523438 1.40625 39.609375 2.6875 C 39.691406 3.976562 39.34375 5.125 38.5625 6.125 L 38.8125 6.375 C 40.0625 6.394531 41.3125 6.523438 42.5625 6.765625 C 43.613281 6.972656 44.753906 7.328125 45.984375 7.828125 C 47.222656 8.328125 48.347656 9.050781 49.359375 10 C 50.878906 11.425781 51.722656 13 51.890625 14.71875 C 52.066406 16.4375 51.539062 17.953125 50.3125 19.265625 C 49.6875 19.929688 48.738281 20.707031 47.46875 21.59375 C 46.195312 22.488281 44.800781 23.457031 43.28125 24.5 L 33.46875 31.3125 L 24.84375 23.25 L 37.90625 14.03125 C 38.394531 13.675781 38.875 13.335938 39.34375 13.015625 C 39.8125 12.691406 40.164062 12.398438 40.40625 12.140625 C 40.789062 11.722656 41 11.265625 41.03125 10.765625 C 41.0625 10.273438 40.851562 9.820312 40.40625 9.40625 C 39.863281 8.894531 39.164062 8.609375 38.3125 8.546875 C 37.457031 8.492188 36.773438 8.476562 36.265625 8.5 L 20.734375 19.390625 L 12.546875 11.75 L 25.640625 2.578125 C 26.054688 2.253906 26.488281 1.9375 26.9375 1.625 C 27.394531 1.3125 27.773438 1 28.078125 0.6875 C 28.492188 0.238281 28.722656 -0.222656 28.765625 -0.703125 C 28.804688 -1.191406 28.609375 -1.640625 28.171875 -2.046875 C 27.648438 -2.535156 26.96875 -2.816406 26.125 -2.890625 C 25.28125 -2.960938 24.601562 -2.984375 24.09375 -2.953125 L 8.484375 7.9375 L -0.4375 -0.40625 L 21.15625 -15.5 L 28.28125 -8.828125 L 26.453125 -5.265625 Z M 26.71875 -5.03125 "/></g></g></g></svg>