<svg xmlns="http://www.w3.org/2000/svg" xmlns:xlink="http://www.w3.org/1999/xlink" width="50" zoomAndPan="magnify" viewBox="0 0 37.5 37.499999" height="50" preserveAspectRatio="xMidYMid meet" version="1.0"><defs><clipPath id="ba335f46a4"><path d="M 3.480469 3.480469 L 33.824219 3.480469 L 33.824219 33.824219 L 3.480469 33.824219 Z M 3.480469 3.480469 " clip-rule="nonzero"/></clipPath></defs><g clip-path="url(#ba335f46a4)"><path fill="#ff0000" d="M 33.824219 18.652344 C 33.824219 19.648438 33.726562 20.632812 33.53125 21.613281 C 33.339844 22.589844 33.050781 23.539062 32.667969 24.457031 C 32.289062 25.378906 31.820312 26.253906 31.265625 27.082031 C 30.714844 27.910156 30.085938 28.675781 29.378906 29.378906 C 28.675781 30.085938 27.910156 30.714844 27.082031 31.265625 C 26.253906 31.820312 25.378906 32.289062 24.457031 32.667969 C 23.539062 33.050781 22.589844 33.339844 21.613281 33.53125 C 20.632812 33.726562 19.648438 33.824219 18.652344 33.824219 C 17.65625 33.824219 16.667969 33.726562 15.691406 33.53125 C 14.714844 33.339844 13.765625 33.050781 12.84375 32.667969 C 11.925781 32.289062 11.050781 31.820312 10.222656 31.265625 C 9.394531 30.714844 8.628906 30.085938 7.921875 29.378906 C 7.21875 28.675781 6.589844 27.910156 6.035156 27.082031 C 5.480469 26.253906 5.015625 25.378906 4.632812 24.457031 C 4.253906 23.539062 3.964844 22.589844 3.769531 21.613281 C 3.574219 20.632812 3.480469 19.648438 3.480469 18.652344 C 3.480469 17.65625 3.574219 16.667969 3.769531 15.691406 C 3.964844 14.714844 4.253906 13.765625 4.632812 12.84375 C 5.015625 11.925781 5.480469 11.050781 6.035156 10.222656 C 6.589844 9.394531 7.21875 8.628906 7.921875 7.921875 C 8.628906 7.21875 9.394531 6.589844 10.222656 6.035156 C 11.050781 5.480469 11.925781 5.015625 12.84375 4.632812 C 13.765625 4.253906 14.714844 3.964844 15.691406 3.769531 C 16.667969 3.574219 17.65625 3.480469 18.652344 3.480469 C 19.648438 3.480469 20.632812 3.574219 21.613281 3.769531 C 22.589844 3.964844 23.539062 4.253906 24.457031 4.632812 C 25.378906 5.015625 26.253906 5.480469 27.082031 6.035156 C 27.910156 6.589844 28.675781 7.21875 29.378906 7.921875 C 30.085938 8.628906 30.714844 9.394531 31.265625 10.222656 C 31.820312 11.050781 32.289062 11.925781 32.667969 12.84375 C 33.050781 13.765625 33.339844 14.714844 33.53125 15.691406 C 33.726562 16.667969 33.824219 17.65625 33.824219 18.652344 Z M 33.824219 18.652344 " fill-opacity="1" fill-rule="nonzero"/></g><path fill="#ffffff" d="M 18.652344 6.851562 C 19.425781 6.851562 20.195312 6.925781 20.953125 7.078125 C 21.714844 7.226562 22.453125 7.453125 23.167969 7.75 C 23.882812 8.046875 24.5625 8.410156 25.207031 8.839844 C 25.851562 9.269531 26.449219 9.757812 26.996094 10.308594 C 27.542969 10.855469 28.03125 11.449219 28.464844 12.09375 C 28.894531 12.738281 29.257812 13.417969 29.554688 14.136719 C 29.851562 14.851562 30.074219 15.589844 30.226562 16.347656 C 30.375 17.109375 30.453125 17.875 30.453125 18.652344 C 30.453125 19.425781 30.375 20.195312 30.226562 20.953125 C 30.074219 21.714844 29.851562 22.453125 29.554688 23.167969 C 29.257812 23.882812 28.894531 24.5625 28.464844 25.207031 C 28.03125 25.851562 27.542969 26.449219 26.996094 26.996094 C 26.449219 27.542969 25.851562 28.03125 25.207031 28.464844 C 24.5625 28.894531 23.882812 29.257812 23.167969 29.554688 C 22.453125 29.851562 21.714844 30.074219 20.953125 30.226562 C 20.195312 30.375 19.425781 30.453125 18.652344 30.453125 C 17.875 30.453125 17.109375 30.375 16.347656 30.226562 C 15.589844 30.074219 14.851562 29.851562 14.136719 29.554688 C 13.417969 29.257812 12.738281 28.894531 12.09375 28.464844 C 11.449219 28.03125 10.855469 27.542969 10.308594 26.996094 C 9.757812 26.449219 9.269531 25.851562 8.839844 25.207031 C 8.410156 24.5625 8.046875 23.882812 7.75 23.167969 C 7.453125 22.453125 7.226562 21.714844 7.078125 20.953125 C 6.925781 20.195312 6.851562 19.425781 6.851562 18.652344 C 6.851562 17.875 6.925781 17.109375 7.078125 16.347656 C 7.226562 15.589844 7.453125 14.851562 7.75 14.136719 C 8.046875 13.417969 8.410156 12.738281 8.839844 12.09375 C 9.269531 11.449219 9.757812 10.855469 10.308594 10.308594 C 10.855469 9.757812 11.449219 9.269531 12.09375 8.839844 C 12.738281 8.410156 13.417969 8.046875 14.136719 7.75 C 14.851562 7.453125 15.589844 7.226562 16.347656 7.078125 C 17.109375 6.925781 17.875 6.851562 18.652344 6.851562 M 18.652344 7.691406 C 19.371094 7.695312 20.082031 7.765625 20.789062 7.90625 C 21.492188 8.046875 22.179688 8.253906 22.84375 8.527344 C 23.507812 8.804688 24.140625 9.140625 24.738281 9.542969 C 25.335938 9.941406 25.890625 10.394531 26.398438 10.902344 C 26.90625 11.414062 27.359375 11.964844 27.757812 12.566406 C 28.160156 13.164062 28.496094 13.792969 28.773438 14.457031 C 29.046875 15.125 29.253906 15.808594 29.394531 16.515625 C 29.535156 17.21875 29.605469 17.933594 29.605469 18.652344 C 29.605469 19.371094 29.535156 20.082031 29.394531 20.789062 C 29.253906 21.496094 29.046875 22.179688 28.773438 22.84375 C 28.496094 23.507812 28.160156 24.140625 27.757812 24.738281 C 27.359375 25.335938 26.90625 25.890625 26.398438 26.398438 C 25.890625 26.90625 25.335938 27.363281 24.738281 27.761719 C 24.140625 28.160156 23.507812 28.5 22.84375 28.773438 C 22.179688 29.050781 21.492188 29.257812 20.789062 29.398438 C 20.082031 29.539062 19.371094 29.609375 18.652344 29.609375 C 17.933594 29.609375 17.21875 29.539062 16.515625 29.398438 C 15.808594 29.257812 15.125 29.050781 14.460938 28.773438 C 13.792969 28.5 13.164062 28.160156 12.566406 27.761719 C 11.96875 27.363281 11.414062 26.90625 10.90625 26.398438 C 10.398438 25.890625 9.941406 25.335938 9.542969 24.738281 C 9.144531 24.140625 8.804688 23.507812 8.53125 22.84375 C 8.253906 22.179688 8.046875 21.496094 7.90625 20.789062 C 7.765625 20.082031 7.695312 19.371094 7.695312 18.652344 C 7.695312 17.933594 7.765625 17.21875 7.90625 16.515625 C 8.046875 15.808594 8.253906 15.125 8.53125 14.457031 C 8.804688 13.792969 9.144531 13.164062 9.542969 12.566406 C 9.941406 11.964844 10.398438 11.414062 10.90625 10.902344 C 11.414062 10.394531 11.96875 9.941406 12.566406 9.542969 C 13.164062 9.140625 13.792969 8.804688 14.460938 8.527344 C 15.125 8.253906 15.808594 8.046875 16.515625 7.90625 C 17.21875 7.765625 17.933594 7.695312 18.652344 7.691406 " fill-opacity="1" fill-rule="evenodd"/><path fill="#ffffff" d="M 13.59375 11.066406 L 13.59375 26.238281 L 27.082031 17.808594 Z M 13.59375 11.066406 " fill-opacity="1" fill-rule="nonzero"/></svg>